<svg width="136" height="16" viewBox="0 0 136 16" fill="none" xmlns="http://www.w3.org/2000/svg">
<path d="M0 15.8053V2.17524H3.30102L7.22223 11.8526L11.1434 2.17524H14.4445V15.8053H12.844V3.92768H12.1638L8.10251 13.6829H6.36197L2.28071 3.92768H1.58049V15.8053H0Z" fill="white"/>
<path d="M32.2953 2.17524L27.5738 11.21V15.8053H25.9733V11.21L21.2519 2.17524H22.9124L26.7736 9.61335L30.6348 2.17524H32.2953Z" fill="white"/>
<path d="M43.7556 16C43.1554 16 42.5485 15.9091 41.935 15.7274C41.3348 15.5457 40.768 15.299 40.2345 14.9875C39.7143 14.663 39.2675 14.306 38.8941 13.9166L40.6746 12.242C41.0747 12.6444 41.5549 12.9689 42.1151 13.2156C42.6886 13.4622 43.2221 13.5855 43.7155 13.5855C44.3424 13.5855 44.8692 13.4103 45.296 13.0598C45.7362 12.6963 45.9562 12.268 45.9562 11.7747C45.9562 11.3723 45.8029 11.0283 45.4961 10.7427C45.1893 10.4441 44.8092 10.2299 44.3557 10.1001C43.1687 9.7886 42.1551 9.45758 41.3148 9.10709C40.4879 8.75661 39.8744 8.29578 39.4742 7.72462C39.0741 7.15345 38.9274 6.38758 39.0341 5.42698C39.1275 4.67408 39.3809 4.051 39.7943 3.55772C40.2211 3.05146 40.7546 2.67501 41.3948 2.42837C42.0484 2.18173 42.7686 2.05841 43.5555 2.05841C44.2624 2.05841 45.0026 2.16875 45.7762 2.38943C46.5498 2.59713 47.3167 2.94761 48.0769 3.44089L46.3764 5.15438C45.9896 4.94669 45.5695 4.77144 45.116 4.62865C44.6625 4.48586 44.1957 4.40797 43.7155 4.39499C43.3421 4.38201 42.982 4.42096 42.6352 4.51182C42.3018 4.58971 42.0217 4.7325 41.795 4.94019C41.5682 5.13491 41.4482 5.40102 41.4348 5.73853C41.4215 6.11497 41.5215 6.40705 41.7349 6.61474C41.9483 6.82244 42.2418 6.99119 42.6152 7.121C43.002 7.25081 43.4488 7.3936 43.9556 7.54937C44.8892 7.79601 45.6828 8.0816 46.3364 8.40612C46.9899 8.71766 47.49 9.13955 47.8368 9.67177C48.1836 10.191 48.357 10.892 48.357 11.7747C48.357 12.5665 48.1502 13.2805 47.7368 13.9166C47.3233 14.5526 46.7698 15.0589 46.0763 15.4353C45.3827 15.8118 44.6092 16 43.7556 16Z" fill="white"/>
<path d="M68.2672 8.95132C68.2672 9.9249 68.0871 10.8401 67.727 11.6968C67.3803 12.5406 66.8934 13.2805 66.2666 13.9166C65.6397 14.5526 64.9128 15.0524 64.0859 15.4159C63.259 15.7793 62.372 15.9611 61.4251 15.9611C60.4648 15.9611 59.5712 15.7793 58.7443 15.4159C57.9173 15.0394 57.1904 14.5331 56.5636 13.8971C55.9367 13.248 55.4432 12.5016 55.0831 11.6579C54.7363 10.8011 54.563 9.89893 54.563 8.95132C54.563 8.00371 54.743 7.11451 55.1031 6.28373C55.4632 5.43996 55.9634 4.70005 56.6036 4.06398C57.2438 3.41493 57.9774 2.90867 58.8043 2.5452C59.6312 2.18173 60.5048 2 61.4251 2C62.372 2 63.2523 2.18173 64.0659 2.5452C64.8928 2.90867 65.6197 3.41493 66.2466 4.06398C66.8868 4.70005 67.3803 5.43996 67.727 6.28373C68.0871 7.11451 68.2672 8.00371 68.2672 8.95132ZM65.7864 8.95132C65.7864 8.09458 65.5864 7.31572 65.1862 6.61474C64.7995 5.91377 64.2726 5.35559 63.6058 4.94019C62.9522 4.51182 62.2253 4.29764 61.4251 4.29764C60.6248 4.29764 59.8913 4.51182 59.2244 4.94019C58.5575 5.36857 58.024 5.93973 57.6239 6.65369C57.2371 7.35466 57.0437 8.12054 57.0437 8.95132C57.0437 9.80807 57.2371 10.5934 57.6239 11.3074C58.024 12.0213 58.5575 12.5925 59.2244 13.0209C59.8913 13.4492 60.6248 13.6634 61.4251 13.6634C62.2387 13.6634 62.9722 13.4492 63.6258 13.0209C64.2793 12.5925 64.7995 12.0213 65.1862 11.3074C65.5864 10.5804 65.7864 9.79509 65.7864 8.95132Z" fill="white"/>
<path d="M88.5664 8.95132C88.5664 9.9249 88.3864 10.8401 88.0263 11.6968C87.6795 12.5406 87.1927 13.2805 86.5658 13.9166C85.939 14.5526 85.2121 15.0524 84.3851 15.4159C83.5582 15.7793 82.6713 15.9611 81.7243 15.9611C80.764 15.9611 79.8704 15.7793 79.0435 15.4159C78.2166 15.0394 77.4897 14.5331 76.8628 13.8971C76.236 13.248 75.7425 12.5016 75.3824 11.6579C75.0356 10.8011 74.8622 9.89893 74.8622 8.95132C74.8622 8.00371 75.0423 7.11451 75.4024 6.28373C75.7625 5.43996 76.2626 4.70005 76.9028 4.06398C77.543 3.41493 78.2766 2.90867 79.1035 2.5452C79.9304 2.18173 80.804 2 81.7243 2C82.6713 2 83.5516 2.18173 84.3651 2.5452C85.1921 2.90867 85.919 3.41493 86.5458 4.06398C87.186 4.70005 87.6795 5.43996 88.0263 6.28373C88.3864 7.11451 88.5664 8.00371 88.5664 8.95132ZM86.0857 8.95132C86.0857 8.09458 85.8856 7.31572 85.4855 6.61474C85.0987 5.91377 84.5719 5.35559 83.905 4.94019C83.2515 4.51182 82.5246 4.29764 81.7243 4.29764C80.9241 4.29764 80.1905 4.51182 79.5236 4.94019C78.8568 5.36857 78.3233 5.93973 77.9232 6.65369C77.5364 7.35466 77.343 8.12054 77.343 8.95132C77.343 9.80807 77.5364 10.5934 77.9232 11.3074C78.3233 12.0213 78.8568 12.5925 79.5236 13.0209C80.1905 13.4492 80.9241 13.6634 81.7243 13.6634C82.5379 13.6634 83.2715 13.4492 83.925 13.0209C84.5785 12.5925 85.0987 12.0213 85.4855 11.3074C85.8856 10.5804 86.0857 9.79509 86.0857 8.95132Z" fill="white"/>
<path d="M104.684 4.31711H100.722V15.8053H98.3216V4.31711H94.3604V2.17524H104.684V4.31711Z" fill="white"/>
<path d="M121.463 15.8053H119.062V10.2559H113.881V15.8053H111.48V2.17524H113.881V8.11405H119.062V2.17524H121.463V15.8053Z" fill="white"/>
<path d="M136 15.8053H128.458V2.17524H136V4.35605H130.858V8.15299H135.02V10.1196H130.858V13.6245H136V15.8053Z" fill="white"/>
</svg>
