<svg width="361" height="640" viewBox="0 0 361 640" fill="none" xmlns="http://www.w3.org/2000/svg">
<g clip-path="url(#clip0)">
<path d="M261.517 634.873C256.752 642.796 259.928 647.549 261.517 653.887L381.176 656C383.117 601.775 387 492.162 387 487.514C387 482.866 384.176 447.901 382.764 431L363.704 434.169L346.761 446.845L340.407 454.768C339.172 457.761 336.595 464.275 336.171 466.387C335.642 469.028 335.642 479.063 332.995 500.718C330.877 518.042 322.582 524.838 318.699 526.07L303.344 540.331L293.285 555.12C291.167 560.401 286.825 571.81 286.402 575.19C285.872 579.415 281.636 597.901 281.107 602.655C280.577 607.408 278.989 612.162 275.812 616.915C272.636 621.669 266.282 626.951 261.517 634.873Z" fill="#E3CFBD"/>
<path d="M124.655 677.114C94.8956 673.241 73.4978 721.668 6.58089 701.44L-13.2417 675.512L-28.6636 600.657L-3.87917 533.525C12.7969 520.752 49.9323 494.827 65.0658 493.31C80.1993 491.793 99.532 512.22 107.307 522.623C118.168 532.39 143.686 553.944 158.866 562.021C174.045 570.099 175.472 615.29 174.288 636.876C167.663 651.58 148.462 680.213 124.655 677.114Z" fill="#E3CFBD"/>
<path d="M469.999 -107.11C481.788 -140.425 466.329 -202.918 457.125 -230L-99 10.7508L-55.9591 75.2413L-16.0802 103.317L22.5339 116.828L62.3522 127.298C71.7537 138.341 92.8404 162.21 101.975 169.338C111.11 176.467 143.437 171.96 158.458 168.816C173.317 162.384 212.144 149.605 248.587 149.95C285.03 150.294 310.469 129.877 318.633 119.626L347.371 87.0342C354.732 78.8096 376.223 52.3777 403.296 12.4462C437.137 -37.4681 455.261 -65.4655 469.999 -107.11Z" fill="#E3CFBD"/>
<path d="M18.7119 208.635C10.6912 224.181 -0.119215 223.814 -11.9024 227.576L-134.212 37.4915C-48.8343 -19.644 123.793 -135.073 131.276 -139.703C138.76 -144.333 197.862 -174.628 226.478 -189.197L240.317 -155.426L236.744 -115.586L230.301 -97.4887C226.71 -92.523 218.783 -81.8953 215.802 -79.1104C212.076 -75.6293 195.919 -65.6326 163.683 -39.8087C137.895 -19.1496 135.196 0.942987 137.07 8.40689L129.367 47.2742L115.553 78.1638C109.154 86.8268 95.0994 105.165 90.0778 109.212C83.8008 114.272 58.2461 139.49 51.1187 145.076C43.9913 150.661 37.9161 157.948 33.4194 167.786C28.9227 177.623 26.7325 193.089 18.7119 208.635Z" fill="#D6BCBC"/>
<path fill-rule="evenodd" clip-rule="evenodd" d="M350.113 83.8872C330.997 80.3361 305.762 78.2855 298.548 87.4226C294.885 92.0612 286.621 98.8594 277.209 106.603C260.335 120.484 239.769 137.403 235.407 150.359C239.804 150.056 244.213 149.908 248.587 149.95C285.03 150.294 310.469 129.877 318.633 119.626L347.371 87.0341C348.136 86.1799 349.053 85.1291 350.113 83.8872Z" fill="#E1B0B0"/>
<path d="M-32.9924 665.11C-57.0473 690.999 -67.687 754.491 -70 783L536 783L522.122 706.718L496.679 665.11L466.611 637.371L434.229 611.943C429.989 598.074 420.12 567.792 414.569 557.621C409.018 547.45 377.561 538.743 362.527 535.661C346.336 535.661 305.627 531.963 272.321 517.169C239.014 502.374 207.557 511.004 195.992 517.169L156.672 535.661C146.649 540.284 116.426 556.003 75.7175 581.893C24.832 614.255 -2.92367 632.747 -32.9924 665.11Z" fill="#D6BCBC"/>
<path fill-rule="evenodd" clip-rule="evenodd" d="M91.893 688.424C103.529 681.553 113.505 675.663 124.655 677.114C148.462 680.213 167.663 651.58 174.287 636.876C175.472 615.29 174.045 570.099 158.866 562.021C152.41 558.586 144.083 552.713 135.81 546.345C121.017 554.358 100.275 566.275 75.7174 581.893C33.0889 609.004 6.69278 626.381 -18.4292 650.333L-13.2418 675.512L6.58078 701.44C48.4263 714.089 72.4718 699.891 91.893 688.424Z" fill="#E1AFAF"/>
</g>
<defs>
<clipPath id="clip0">
<rect width="361" height="640" fill="white"/>
</clipPath>
</defs>
</svg>
