<svg width="361" height="640" viewBox="0 0 361 640" fill="none" xmlns="http://www.w3.org/2000/svg">
<g clip-path="url(#clip0)">
<path d="M97.8244 28.9744C80.2576 9.26641 48.8283 -1.2312 29.1308 -1.12862L72.7161 -113.045L160.84 -114.824L362.414 -51.6015L444.3 35.5976C436.879 60.0049 420.711 107.364 415.401 101.543C408.763 94.2674 390.496 96.0886 375.666 95.049C360.837 94.0093 353.447 98.4138 333.174 104.815C312.9 111.215 293.83 114.869 265.714 116.741C237.599 118.614 166.672 88.6237 151.503 80.8844C136.333 73.1451 115.391 48.6825 97.8244 28.9744Z" fill="#D6BCBC"/>
<path d="M125.616 577.229C154.555 585.725 158.053 631.807 172.52 675.398C168.215 676.437 159.668 682.483 159.916 698.349C160.164 714.216 140.674 726.59 130.898 730.794L76.3651 736.852C73.6429 727.239 59.3926 705.4 24.1689 694.945C-11.0547 684.49 -15.9186 670.813 -13.9475 665.281C-17.6805 645.853 -24.6948 600.346 -22.8885 573.745C-21.0822 547.144 -8.59873 538.01 -2.5828 536.768C10.279 534.716 36.2511 535.986 37.2456 557.487C38.2401 578.988 62.5527 579.395 74.5847 576.911C81.9492 574.185 102.466 570.432 125.616 577.229Z" fill="#D6BCBC"/>
<path fill-rule="evenodd" clip-rule="evenodd" d="M156.615 619.575C149.985 598.402 141.759 581.968 125.617 577.229C102.466 570.432 81.9496 574.185 74.5851 576.911C68.5454 578.158 59.4115 578.676 51.6857 576.164C63.0269 591.222 77.9745 598.41 85.5631 600.301L117.91 610.152C123.444 611.884 136.96 615.495 156.615 619.575Z" fill="#E1AFAF"/>
</g>
<defs>
<clipPath id="clip0">
<rect width="361" height="640" fill="white"/>
</clipPath>
</defs>
</svg>
